<svg width="222" height="94" viewBox="0 0 222 94" fill="none" xmlns="http://www.w3.org/2000/svg">
<path d="M210.644 90.6383L177.753 0.061827L177.732 0H177.072L170.292 18.6099L157.968 52.4911L157.947 52.4705C153.681 48.699 147.643 46.3496 140.059 45.4634L137.75 45.2161L140.059 44.9276C152.589 42.6812 160.997 34.7674 160.997 25.246C160.977 12.1593 148.673 3.05013 131.073 3.05013H94.4304V3.70962H105.085V71.2247L79.2416 0.061827L79.2003 0H78.5615L71.7811 18.6099L45.6489 90.391L45.484 90.4116C45.0306 90.4735 44.5978 90.5147 44.1651 90.5353C43.5056 90.5971 42.8461 90.6177 42.2072 90.6177H15.8071L65.99 3.70962L66.3609 3.05013H4.98737V29.9449H5.64686C5.74991 16.8582 13.3752 3.70962 30.2334 3.70962H50.5538L0 91.2772H68.1127V65.516H67.4532C67.3708 76.9333 60.8996 87.7737 46.8236 90.2262L46.3702 90.3086L57.0869 60.8583H87.1142L97.9339 90.6383H87.2584V91.2978H129.136V90.6383H118.419V45.7107H130.785C143.377 45.7107 150.59 51.337 150.59 61.1263V69.1019C150.59 69.9881 150.652 71.2659 150.714 72.3375V72.3788L144.057 90.6383H135.401V91.2978H153.372V90.6383H144.778L150.837 74.0069C150.858 74.1718 150.858 74.2748 150.858 74.2748L151.023 75.7793L151.188 76.7685C152.197 82.91 154.547 87.4027 158.153 90.1643L158.669 90.5353C161.41 92.4519 164.831 93.4205 168.808 93.4205C174.084 93.4205 177.608 92.1016 180.514 89.0102L180.123 88.6599C177.443 91.1329 175.197 92.1428 172.374 92.1428C167.572 92.1428 165.057 86.3104 165.057 80.5811V69.4111C165.078 66.6495 164.645 63.8879 163.78 61.2499L163.656 60.8996V60.879H185.605L196.424 90.6589H185.749V91.3184H222V90.6589L210.644 90.6383ZM57.3342 60.1989L72.1315 19.5579L86.8875 60.1782H57.3342V60.1989ZM118.44 45.0513V3.70962H127.879C140.491 3.70962 147.148 11.2113 147.148 25.3697C147.148 40.4348 143.336 45.0306 130.805 45.0306H118.44V45.0513ZM163.429 60.1989L163.367 60.034C162.399 57.6639 160.977 55.4794 159.184 53.6452L158.566 53.0269L158.504 52.9651L170.642 19.5579L185.398 60.1782H163.429V60.1989Z" fill="#011318"/>
</svg>
