<svg width="29" height="37" viewBox="0 0 29 37" fill="none" xmlns="http://www.w3.org/2000/svg">
<path d="M16.0746 0H12.2257C9.35938 0 7.02733 2.33231 7.02733 5.19869V8.38721H2.7202L0 36.1075H28.3001L25.5802 8.38807H21.2731V5.19886C21.2731 2.33257 18.9411 0.000170671 16.0747 0.000170671L16.0746 0ZM7.52519 5.19869C7.52519 2.6069 9.63337 0.497951 12.2256 0.497951H16.0745C18.6663 0.497951 20.7752 2.60682 20.7752 5.19869V8.38721H7.52553L7.52519 5.19869ZM25.1294 8.88585L27.7516 35.6097H0.549523L3.17171 8.88585H7.02758V11.524H7.52553V8.88585H20.7752V11.524H21.2732V8.88585H25.1294Z" fill="#F5F6F8"/>
</svg>
